<svg width="257" height="340" viewBox="0 0 257 340" fill="none" xmlns="http://www.w3.org/2000/svg">
<rect x="59.7711" y="18.939" width="16.1273" height="16.1273" fill="#F14C2D" stroke="#F14C2D" stroke-width="2.29481"/>
<rect x="73.6031" y="18.9356" width="16.1273" height="16.1273" fill="#F14C2D" stroke="#F14C2D" stroke-width="2.29481"/>
<rect x="45.9385" y="32.7725" width="16.1273" height="16.1273" fill="#F14C2D" stroke="#F14C2D" stroke-width="2.29481"/>
<rect x="59.7711" y="32.7667" width="16.1273" height="16.1273" fill="#F14C2D" stroke="#F14C2D" stroke-width="2.29481"/>
<rect x="73.5953" y="32.7725" width="16.1273" height="16.1273" fill="#F14C2D" stroke="#F14C2D" stroke-width="2.29481"/>
<rect x="101.269" y="32.7725" width="16.1273" height="16.1273" fill="#F14C2D" stroke="#F14C2D" stroke-width="2.29481"/>
<rect x="115.098" y="32.7696" width="16.1273" height="16.1273" fill="#F14C2D" stroke="#F14C2D" stroke-width="2.29481"/>
<rect x="128.932" y="32.7725" width="16.1273" height="16.1273" fill="#F14C2D" stroke="#F14C2D" stroke-width="2.29481"/>
<rect x="59.7691" y="46.6021" width="16.1273" height="16.1273" fill="#F14C2D" stroke="#F14C2D" stroke-width="2.29481"/>
<rect x="73.6031" y="46.605" width="16.1273" height="16.1273" fill="#F14C2D" stroke="#F14C2D" stroke-width="2.29481"/>
<rect x="87.4341" y="46.605" width="16.1273" height="16.1273" fill="#F14C2D" stroke="#F14C2D" stroke-width="2.29481"/>
<rect x="101.267" y="46.5953" width="16.1273" height="16.1273" fill="#F14C2D" stroke="#F14C2D" stroke-width="2.29481"/>
<rect x="115.096" y="46.605" width="16.1273" height="16.1273" fill="#F14C2D" stroke="#F14C2D" stroke-width="2.29481"/>
<rect x="18.2696" y="60.4356" width="16.1273" height="16.1273" fill="#F14C2D" stroke="#F14C2D" stroke-width="2.29481"/>
<rect x="32.1026" y="60.4356" width="16.1273" height="16.1273" fill="#F14C2D" stroke="#F14C2D" stroke-width="2.29481"/>
<rect x="45.9385" y="60.439" width="16.1273" height="16.1273" fill="#F14C2D" stroke="#F14C2D" stroke-width="2.29481"/>
<rect x="59.7711" y="60.4356" width="16.1273" height="16.1273" fill="#F14C2D" stroke="#F14C2D" stroke-width="2.29481"/>
<rect x="73.6045" y="60.439" width="16.1273" height="16.1273" fill="#F14C2D" stroke="#F14C2D" stroke-width="2.29481"/>
<rect x="87.4307" y="60.439" width="16.1273" height="16.1273" fill="#F14C2D" stroke="#F14C2D" stroke-width="2.29481"/>
<rect x="101.267" y="60.4356" width="16.1273" height="16.1273" fill="#F14C2D" stroke="#F14C2D" stroke-width="2.29481"/>
<rect x="18.275" y="74.2652" width="16.1273" height="16.1273" fill="#F14C2D" stroke="#F14C2D" stroke-width="2.29481"/>
<rect x="32.106" y="74.2652" width="16.1273" height="16.1273" fill="#F14C2D" stroke="#F14C2D" stroke-width="2.29481"/>
<rect x="45.9385" y="74.2691" width="16.1273" height="16.1273" fill="#F14C2D" stroke="#F14C2D" stroke-width="2.29481"/>
<rect x="59.7671" y="74.2691" width="16.1273" height="16.1273" fill="#F14C2D" stroke="#F14C2D" stroke-width="2.29481"/>
<rect x="73.6006" y="74.2652" width="16.1273" height="16.1273" fill="#F14C2D" stroke="#F14C2D" stroke-width="2.29481"/>
<rect x="87.4371" y="74.2715" width="16.1273" height="16.1273" fill="#F14C2D" stroke="#F14C2D" stroke-width="2.29481"/>
<rect x="101.267" y="74.2652" width="16.1273" height="16.1273" fill="#F14C2D" stroke="#F14C2D" stroke-width="2.29481"/>
<rect x="115.1" y="74.2691" width="16.1273" height="16.1273" fill="#F14C2D" stroke="#F14C2D" stroke-width="2.29481"/>
<rect x="59.7725" y="88.0948" width="16.1273" height="16.1273" fill="#F14C2D" stroke="#F14C2D" stroke-width="2.29481"/>
<rect x="73.6045" y="88.0982" width="16.1273" height="16.1273" fill="#F14C2D" stroke="#F14C2D" stroke-width="2.29481"/>
<rect x="87.4395" y="88.106" width="16.1273" height="16.1273" fill="#F14C2D" stroke="#F14C2D" stroke-width="2.29481"/>
<rect x="101.267" y="88.1021" width="16.1273" height="16.1273" fill="#F14C2D" stroke="#F14C2D" stroke-width="2.29481"/>
<rect x="115.097" y="88.0982" width="16.1273" height="16.1273" fill="#F14C2D" stroke="#F14C2D" stroke-width="2.29481"/>
<rect x="128.933" y="88.0982" width="16.1273" height="16.1273" fill="#F14C2D" stroke="#F14C2D" stroke-width="2.29481"/>
<rect x="45.9385" y="101.932" width="16.1273" height="16.1273" fill="#F14C2D" stroke="#F14C2D" stroke-width="2.29481"/>
<rect x="59.7667" y="101.929" width="16.1273" height="16.1273" fill="#F14C2D" stroke="#F14C2D" stroke-width="2.29481"/>
<rect x="73.5987" y="101.932" width="16.1273" height="16.1273" fill="#F14C2D" stroke="#F14C2D" stroke-width="2.29481"/>
<rect x="87.4307" y="101.932" width="16.1273" height="16.1273" fill="#F14C2D" stroke="#F14C2D" stroke-width="2.29481"/>
<rect x="101.271" y="101.932" width="16.1273" height="16.1273" fill="#F14C2D" stroke="#F14C2D" stroke-width="2.29481"/>
<rect x="115.104" y="101.936" width="16.1273" height="16.1273" fill="#F14C2D" stroke="#F14C2D" stroke-width="2.29481"/>
<rect x="128.932" y="101.932" width="16.1273" height="16.1273" fill="#F14C2D" stroke="#F14C2D" stroke-width="2.29481"/>
<rect x="142.761" y="101.932" width="16.1273" height="16.1273" fill="#F14C2D" stroke="#F14C2D" stroke-width="2.29481"/>
<rect x="156.598" y="101.932" width="16.1273" height="16.1273" fill="#F14C2D" stroke="#F14C2D" stroke-width="2.29481"/>
<rect x="45.9376" y="115.769" width="16.1273" height="16.1273" fill="#F14C2D" stroke="#F14C2D" stroke-width="2.29481"/>
<rect x="59.7691" y="115.765" width="16.1273" height="16.1273" fill="#F14C2D" stroke="#F14C2D" stroke-width="2.29481"/>
<rect x="73.6045" y="115.761" width="16.1273" height="16.1273" fill="#F14C2D" stroke="#F14C2D" stroke-width="2.29481"/>
<rect x="87.4371" y="115.769" width="16.1273" height="16.1273" fill="#F14C2D" stroke="#F14C2D" stroke-width="2.29481"/>
<rect x="115.097" y="115.769" width="16.1273" height="16.1273" fill="#F14C2D" stroke="#F14C2D" stroke-width="2.29481"/>
<rect x="128.928" y="115.765" width="16.1273" height="16.1273" fill="#F14C2D" stroke="#F14C2D" stroke-width="2.29481"/>
<rect x="142.765" y="115.769" width="16.1273" height="16.1273" fill="#F14C2D" stroke="#F14C2D" stroke-width="2.29481"/>
<rect x="156.598" y="115.761" width="16.1273" height="16.1273" fill="#F14C2D" stroke="#F14C2D" stroke-width="2.29481"/>
<rect x="170.424" y="115.765" width="16.1273" height="16.1273" fill="#F14C2D" stroke="#F14C2D" stroke-width="2.29481"/>
<rect x="184.258" y="115.769" width="16.1273" height="16.1273" fill="#F14C2D" stroke="#F14C2D" stroke-width="2.29481"/>
<rect x="198.097" y="115.761" width="16.1273" height="16.1273" fill="#F14C2D" stroke="#F14C2D" stroke-width="2.29481"/>
<rect x="59.7725" y="129.595" width="16.1273" height="16.1273" fill="#F14C2D" stroke="#F14C2D" stroke-width="2.29481"/>
<rect x="115.098" y="129.599" width="16.1273" height="16.1273" fill="#F14C2D" stroke="#F14C2D" stroke-width="2.29481"/>
<rect x="128.933" y="129.592" width="16.1273" height="16.1273" fill="#F14C2D" stroke="#F14C2D" stroke-width="2.29481"/>
<rect x="142.764" y="129.599" width="16.1273" height="16.1273" fill="#F14C2D" stroke="#F14C2D" stroke-width="2.29481"/>
<rect x="170.427" y="129.599" width="16.1273" height="16.1273" fill="#F14C2D" stroke="#F14C2D" stroke-width="2.29481"/>
<rect x="184.258" y="129.595" width="16.1273" height="16.1273" fill="#F14C2D" stroke="#F14C2D" stroke-width="2.29481"/>
<rect x="198.097" y="129.602" width="16.1273" height="16.1273" fill="#F14C2D" stroke="#F14C2D" stroke-width="2.29481"/>
<rect x="101.271" y="143.428" width="16.1273" height="16.1273" fill="#F14C2D" stroke="#F14C2D" stroke-width="2.29481"/>
<rect x="115.1" y="143.431" width="16.1273" height="16.1273" fill="#F14C2D" stroke="#F14C2D" stroke-width="2.29481"/>
<rect x="128.93" y="143.424" width="16.1273" height="16.1273" fill="#F14C2D" stroke="#F14C2D" stroke-width="2.29481"/>
<rect x="142.764" y="143.431" width="16.1273" height="16.1273" fill="#F14C2D" stroke="#F14C2D" stroke-width="2.29481"/>
<rect x="156.598" y="143.428" width="16.1273" height="16.1273" fill="#F14C2D" stroke="#F14C2D" stroke-width="2.29481"/>
<rect x="184.26" y="143.428" width="16.1273" height="16.1273" fill="#F14C2D" stroke="#F14C2D" stroke-width="2.29481"/>
<rect x="211.925" y="143.428" width="16.1273" height="16.1273" fill="#F14C2D" stroke="#F14C2D" stroke-width="2.29481"/>
<rect x="225.752" y="143.428" width="16.1273" height="16.1273" fill="#F14C2D" stroke="#F14C2D" stroke-width="2.29481"/>
<rect x="101.269" y="157.261" width="16.1273" height="16.1273" fill="#F14C2D" stroke="#F14C2D" stroke-width="2.29481"/>
<rect x="142.767" y="157.269" width="16.1273" height="16.1273" fill="#F14C2D" stroke="#F14C2D" stroke-width="2.29481"/>
<rect x="156.597" y="157.261" width="16.1273" height="16.1273" fill="#F14C2D" stroke="#F14C2D" stroke-width="2.29481"/>
<rect x="170.428" y="157.261" width="16.1273" height="16.1273" fill="#F14C2D" stroke="#F14C2D" stroke-width="2.29481"/>
<rect x="184.261" y="157.265" width="16.1273" height="16.1273" fill="#F14C2D" stroke="#F14C2D" stroke-width="2.29481"/>
<rect x="198.097" y="157.261" width="16.1273" height="16.1273" fill="#F14C2D" stroke="#F14C2D" stroke-width="2.29481"/>
<rect x="211.926" y="157.265" width="16.1273" height="16.1273" fill="#F14C2D" stroke="#F14C2D" stroke-width="2.29481"/>
<rect x="225.757" y="157.258" width="16.1273" height="16.1273" fill="#F14C2D" stroke="#F14C2D" stroke-width="2.29481"/>
<rect x="45.9376" y="171.094" width="16.1273" height="16.1273" fill="#F14C2D" stroke="#F14C2D" stroke-width="2.29481"/>
<rect x="59.7711" y="171.094" width="16.1273" height="16.1273" fill="#F14C2D" stroke="#F14C2D" stroke-width="2.29481"/>
<rect x="73.6031" y="171.091" width="16.1273" height="16.1273" fill="#F14C2D" stroke="#F14C2D" stroke-width="2.29481"/>
<rect x="101.262" y="171.094" width="16.1273" height="16.1273" fill="#F14C2D" stroke="#F14C2D" stroke-width="2.29481"/>
<rect x="142.764" y="171.098" width="16.1273" height="16.1273" fill="#F14C2D" stroke="#F14C2D" stroke-width="2.29481"/>
<rect x="156.595" y="171.094" width="16.1273" height="16.1273" fill="#F14C2D" stroke="#F14C2D" stroke-width="2.29481"/>
<rect x="170.422" y="171.094" width="16.1273" height="16.1273" fill="#F14C2D" stroke="#F14C2D" stroke-width="2.29481"/>
<rect x="184.261" y="171.087" width="16.1273" height="16.1273" fill="#F14C2D" stroke="#F14C2D" stroke-width="2.29481"/>
<rect x="198.095" y="171.094" width="16.1273" height="16.1273" fill="#F14C2D" stroke="#F14C2D" stroke-width="2.29481"/>
<rect x="211.928" y="171.094" width="16.1273" height="16.1273" fill="#F14C2D" stroke="#F14C2D" stroke-width="2.29481"/>
<rect x="45.9385" y="184.928" width="16.1273" height="16.1273" fill="#F14C2D" stroke="#F14C2D" stroke-width="2.29481"/>
<rect x="59.7711" y="184.923" width="16.1273" height="16.1273" fill="#F14C2D" stroke="#F14C2D" stroke-width="2.29481"/>
<rect x="73.5987" y="184.921" width="16.1273" height="16.1273" fill="#F14C2D" stroke="#F14C2D" stroke-width="2.29481"/>
<rect x="87.4356" y="184.928" width="16.1273" height="16.1273" fill="#F14C2D" stroke="#F14C2D" stroke-width="2.29481"/>
<rect x="101.269" y="184.928" width="16.1273" height="16.1273" fill="#F14C2D" stroke="#F14C2D" stroke-width="2.29481"/>
<rect x="156.593" y="184.932" width="16.1273" height="16.1273" fill="#F14C2D" stroke="#F14C2D" stroke-width="2.29481"/>
<rect x="170.427" y="184.921" width="16.1273" height="16.1273" fill="#F14C2D" stroke="#F14C2D" stroke-width="2.29481"/>
<rect x="184.261" y="184.932" width="16.1273" height="16.1273" fill="#F14C2D" stroke="#F14C2D" stroke-width="2.29481"/>
<rect x="198.093" y="184.932" width="16.1273" height="16.1273" fill="#F14C2D" stroke="#F14C2D" stroke-width="2.29481"/>
<rect x="211.919" y="184.923" width="16.1273" height="16.1273" fill="#F14C2D" stroke="#F14C2D" stroke-width="2.29481"/>
<rect x="225.754" y="184.928" width="16.1273" height="16.1273" fill="#F14C2D" stroke="#F14C2D" stroke-width="2.29481"/>
<rect x="87.4371" y="198.761" width="16.1273" height="16.1273" fill="#F14C2D" stroke="#F14C2D" stroke-width="2.29481"/>
<rect x="101.269" y="198.757" width="16.1273" height="16.1273" fill="#F14C2D" stroke="#F14C2D" stroke-width="2.29481"/>
<rect x="142.765" y="198.761" width="16.1273" height="16.1273" fill="#F14C2D" stroke="#F14C2D" stroke-width="2.29481"/>
<rect x="170.428" y="198.757" width="16.1273" height="16.1273" fill="#F14C2D" stroke="#F14C2D" stroke-width="2.29481"/>
<rect x="184.258" y="198.757" width="16.1273" height="16.1273" fill="#F14C2D" stroke="#F14C2D" stroke-width="2.29481"/>
<rect x="211.926" y="198.757" width="16.1273" height="16.1273" fill="#F14C2D" stroke="#F14C2D" stroke-width="2.29481"/>
<rect x="225.757" y="198.761" width="16.1273" height="16.1273" fill="#F14C2D" stroke="#F14C2D" stroke-width="2.29481"/>
<rect x="101.262" y="212.59" width="16.1273" height="16.1273" fill="#F14C2D" stroke="#F14C2D" stroke-width="2.29481"/>
<rect x="128.933" y="212.586" width="16.1273" height="16.1273" fill="#F14C2D" stroke="#F14C2D" stroke-width="2.29481"/>
<rect x="170.43" y="212.586" width="16.1273" height="16.1273" fill="#F14C2D" stroke="#F14C2D" stroke-width="2.29481"/>
<rect x="184.261" y="212.586" width="16.1273" height="16.1273" fill="#F14C2D" stroke="#F14C2D" stroke-width="2.29481"/>
<rect x="101.267" y="226.421" width="16.1273" height="16.1273" fill="#F14C2D" stroke="#F14C2D" stroke-width="2.29481"/>
<rect x="115.096" y="226.421" width="16.1273" height="16.1273" fill="#F14C2D" stroke="#F14C2D" stroke-width="2.29481"/>
<rect x="101.267" y="240.257" width="16.1273" height="16.1273" fill="#F14C2D" stroke="#F14C2D" stroke-width="2.29481"/>
<rect x="115.097" y="240.253" width="16.1273" height="16.1273" fill="#F14C2D" stroke="#F14C2D" stroke-width="2.29481"/>
<rect x="101.266" y="254.084" width="16.1273" height="16.1273" fill="#F14C2D" stroke="#F14C2D" stroke-width="2.29481"/>
<rect x="128.932" y="254.087" width="16.1273" height="16.1273" fill="#F14C2D" stroke="#F14C2D" stroke-width="2.29481"/>
<rect x="142.761" y="254.087" width="16.1273" height="16.1273" fill="#F14C2D" stroke="#F14C2D" stroke-width="2.29481"/>
<rect x="156.595" y="254.084" width="16.1273" height="16.1273" fill="#F14C2D" stroke="#F14C2D" stroke-width="2.29481"/>
<rect x="170.427" y="254.087" width="16.1273" height="16.1273" fill="#F14C2D" stroke="#F14C2D" stroke-width="2.29481"/>
<rect x="101.267" y="267.917" width="16.1273" height="16.1273" fill="#F14C2D" stroke="#F14C2D" stroke-width="2.29481"/>
<rect x="115.1" y="267.917" width="16.1273" height="16.1273" fill="#F14C2D" stroke="#F14C2D" stroke-width="2.29481"/>
<rect x="128.932" y="267.92" width="16.1273" height="16.1273" fill="#F14C2D" stroke="#F14C2D" stroke-width="2.29481"/>
<rect x="142.768" y="267.92" width="16.1273" height="16.1273" fill="#F14C2D" stroke="#F14C2D" stroke-width="2.29481"/>
<rect x="156.6" y="267.92" width="16.1273" height="16.1273" fill="#F14C2D" stroke="#F14C2D" stroke-width="2.29481"/>
<rect x="170.428" y="267.92" width="16.1273" height="16.1273" fill="#F14C2D" stroke="#F14C2D" stroke-width="2.29481"/>
<rect x="101.266" y="281.75" width="16.1273" height="16.1273" fill="#F14C2D" stroke="#F14C2D" stroke-width="2.29481"/>
<rect x="101.263" y="295.583" width="16.1273" height="16.1273" fill="#F14C2D" stroke="#F14C2D" stroke-width="2.29481"/>
<rect x="101.269" y="309.416" width="16.1273" height="16.1273" fill="#F14C2D" stroke="#F14C2D" stroke-width="2.29481"/>
<rect x="50.3918" y="8.89229" width="31.6173" height="31.6173" rx="9.17923" fill="#F14C2D" stroke="#F14C2D" stroke-width="17.7848"/>
<rect x="64.2233" y="8.89229" width="31.6173" height="31.6173" rx="9.17923" fill="#F14C2D" stroke="#F14C2D" stroke-width="17.7848"/>
<rect x="36.5617" y="22.7253" width="31.6173" height="31.6173" rx="9.17923" fill="#F14C2D" stroke="#F14C2D" stroke-width="17.7848"/>
<rect x="50.3918" y="22.7214" width="31.6173" height="31.6173" rx="9.17923" fill="#F14C2D" stroke="#F14C2D" stroke-width="17.7848"/>
<rect x="64.2175" y="22.7253" width="31.6173" height="31.6173" rx="9.17923" fill="#F14C2D" stroke="#F14C2D" stroke-width="17.7848"/>
<rect x="91.8918" y="22.7282" width="31.6173" height="31.6173" rx="9.17923" fill="#F14C2D" stroke="#F14C2D" stroke-width="17.7848"/>
<rect x="105.721" y="22.7214" width="31.6173" height="31.6173" rx="9.17923" fill="#F14C2D" stroke="#F14C2D" stroke-width="17.7848"/>
<rect x="119.554" y="22.7253" width="31.6173" height="31.6173" rx="9.17923" fill="#F14C2D" stroke="#F14C2D" stroke-width="17.7848"/>
<rect x="50.3918" y="36.5588" width="31.6173" height="31.6173" rx="9.17923" fill="#F14C2D" stroke="#F14C2D" stroke-width="17.7848"/>
<rect x="64.2253" y="36.5588" width="31.6173" height="31.6173" rx="9.17923" fill="#F14C2D" stroke="#F14C2D" stroke-width="17.7848"/>
<rect x="78.0539" y="36.5588" width="31.6173" height="31.6173" rx="9.17923" fill="#F14C2D" stroke="#F14C2D" stroke-width="17.7848"/>
<rect x="91.8879" y="36.548" width="31.6173" height="31.6173" rx="9.17923" fill="#F14C2D" stroke="#F14C2D" stroke-width="17.7848"/>
<rect x="105.716" y="36.5627" width="31.6173" height="31.6173" rx="9.17923" fill="#F14C2D" stroke="#F14C2D" stroke-width="17.7848"/>
<rect x="8.89229" y="50.3913" width="31.6173" height="31.6173" rx="9.17923" fill="#F14C2D" stroke="#F14C2D" stroke-width="17.7848"/>
<rect x="22.7238" y="50.3884" width="31.6173" height="31.6173" rx="9.17923" fill="#F14C2D" stroke="#F14C2D" stroke-width="17.7848"/>
<rect x="36.5617" y="50.3952" width="31.6173" height="31.6173" rx="9.17923" fill="#F14C2D" stroke="#F14C2D" stroke-width="17.7848"/>
<rect x="50.3918" y="50.3884" width="31.6173" height="31.6173" rx="9.17923" fill="#F14C2D" stroke="#F14C2D" stroke-width="17.7848"/>
<rect x="64.2253" y="50.3913" width="31.6173" height="31.6173" rx="9.17923" fill="#F14C2D" stroke="#F14C2D" stroke-width="17.7848"/>
<rect x="78.0529" y="50.3913" width="31.6173" height="31.6173" rx="9.17923" fill="#F14C2D" stroke="#F14C2D" stroke-width="17.7848"/>
<rect x="91.8879" y="50.3884" width="31.6173" height="31.6173" rx="9.17923" fill="#F14C2D" stroke="#F14C2D" stroke-width="17.7848"/>
<rect x="8.89522" y="64.2189" width="31.6173" height="31.6173" rx="9.17923" fill="#F14C2D" stroke="#F14C2D" stroke-width="17.7848"/>
<rect x="22.7287" y="64.2219" width="31.6173" height="31.6173" rx="9.17923" fill="#F14C2D" stroke="#F14C2D" stroke-width="17.7848"/>
<rect x="36.5617" y="64.2219" width="31.6173" height="31.6173" rx="9.17923" fill="#F14C2D" stroke="#F14C2D" stroke-width="17.7848"/>
<rect x="50.3898" y="64.2219" width="31.6173" height="31.6173" rx="9.17923" fill="#F14C2D" stroke="#F14C2D" stroke-width="17.7848"/>
<rect x="64.2214" y="64.2219" width="31.6173" height="31.6173" rx="9.17923" fill="#F14C2D" stroke="#F14C2D" stroke-width="17.7848"/>
<rect x="78.0603" y="64.2258" width="31.6173" height="31.6173" rx="9.17923" fill="#F14C2D" stroke="#F14C2D" stroke-width="17.7848"/>
<rect x="91.8898" y="64.2219" width="31.6173" height="31.6173" rx="9.17923" fill="#F14C2D" stroke="#F14C2D" stroke-width="17.7848"/>
<rect x="105.723" y="64.2219" width="31.6173" height="31.6173" rx="9.17923" fill="#F14C2D" stroke="#F14C2D" stroke-width="17.7848"/>
<rect x="50.3933" y="78.051" width="31.6173" height="31.6173" rx="9.17923" fill="#F14C2D" stroke="#F14C2D" stroke-width="17.7848"/>
<rect x="64.2268" y="78.051" width="31.6173" height="31.6173" rx="9.17923" fill="#F14C2D" stroke="#F14C2D" stroke-width="17.7848"/>
<rect x="78.0603" y="78.0583" width="31.6173" height="31.6173" rx="9.17923" fill="#F14C2D" stroke="#F14C2D" stroke-width="17.7848"/>
<rect x="91.8879" y="78.0583" width="31.6173" height="31.6173" rx="9.17923" fill="#F14C2D" stroke="#F14C2D" stroke-width="17.7848"/>
<rect x="105.719" y="78.051" width="31.6173" height="31.6173" rx="9.17923" fill="#F14C2D" stroke="#F14C2D" stroke-width="17.7848"/>
<rect x="119.555" y="78.0549" width="31.6173" height="31.6173" rx="9.17923" fill="#F14C2D" stroke="#F14C2D" stroke-width="17.7848"/>
<rect x="36.5607" y="91.8884" width="31.6173" height="31.6173" rx="9.17923" fill="#F14C2D" stroke="#F14C2D" stroke-width="17.7848"/>
<rect x="50.3889" y="91.8845" width="31.6173" height="31.6173" rx="9.17923" fill="#F14C2D" stroke="#F14C2D" stroke-width="17.7848"/>
<rect x="64.2214" y="91.8845" width="31.6173" height="31.6173" rx="9.17923" fill="#F14C2D" stroke="#F14C2D" stroke-width="17.7848"/>
<rect x="78.0529" y="91.8845" width="31.6173" height="31.6173" rx="9.17923" fill="#F14C2D" stroke="#F14C2D" stroke-width="17.7848"/>
<rect x="91.8933" y="91.8845" width="31.6173" height="31.6173" rx="9.17923" fill="#F14C2D" stroke="#F14C2D" stroke-width="17.7848"/>
<rect x="105.726" y="91.8918" width="31.6173" height="31.6173" rx="9.17923" fill="#F14C2D" stroke="#F14C2D" stroke-width="17.7848"/>
<rect x="119.553" y="91.8884" width="31.6173" height="31.6173" rx="9.17923" fill="#F14C2D" stroke="#F14C2D" stroke-width="17.7848"/>
<rect x="133.384" y="91.8845" width="31.6173" height="31.6173" rx="9.17923" fill="#F14C2D" stroke="#F14C2D" stroke-width="17.7848"/>
<rect x="147.22" y="91.8884" width="31.6173" height="31.6173" rx="9.17923" fill="#F14C2D" stroke="#F14C2D" stroke-width="17.7848"/>
<rect x="36.5607" y="105.725" width="31.6173" height="31.6173" rx="9.17923" fill="#F14C2D" stroke="#F14C2D" stroke-width="17.7848"/>
<rect x="50.3898" y="105.718" width="31.6173" height="31.6173" rx="9.17923" fill="#F14C2D" stroke="#F14C2D" stroke-width="17.7848"/>
<rect x="64.2268" y="105.718" width="31.6173" height="31.6173" rx="9.17923" fill="#F14C2D" stroke="#F14C2D" stroke-width="17.7848"/>
<rect x="78.0603" y="105.721" width="31.6173" height="31.6173" rx="9.17923" fill="#F14C2D" stroke="#F14C2D" stroke-width="17.7848"/>
<rect x="105.719" y="105.721" width="31.6173" height="31.6173" rx="9.17923" fill="#F14C2D" stroke="#F14C2D" stroke-width="17.7848"/>
<rect x="119.551" y="105.721" width="31.6173" height="31.6173" rx="9.17923" fill="#F14C2D" stroke="#F14C2D" stroke-width="17.7848"/>
<rect x="133.387" y="105.721" width="31.6173" height="31.6173" rx="9.17923" fill="#F14C2D" stroke="#F14C2D" stroke-width="17.7848"/>
<rect x="147.22" y="105.715" width="31.6173" height="31.6173" rx="9.17923" fill="#F14C2D" stroke="#F14C2D" stroke-width="17.7848"/>
<rect x="161.047" y="105.718" width="31.6173" height="31.6173" rx="9.17923" fill="#F14C2D" stroke="#F14C2D" stroke-width="17.7848"/>
<rect x="174.88" y="105.721" width="31.6173" height="31.6173" rx="9.17923" fill="#F14C2D" stroke="#F14C2D" stroke-width="17.7848"/>
<rect x="188.717" y="105.715" width="31.6173" height="31.6173" rx="9.17923" fill="#F14C2D" stroke="#F14C2D" stroke-width="17.7848"/>
<rect x="50.3947" y="119.551" width="31.6173" height="31.6173" rx="9.17923" fill="#F14C2D" stroke="#F14C2D" stroke-width="17.7848"/>
<rect x="105.721" y="119.551" width="31.6173" height="31.6173" rx="9.17923" fill="#F14C2D" stroke="#F14C2D" stroke-width="17.7848"/>
<rect x="119.554" y="119.548" width="31.6173" height="31.6173" rx="9.17923" fill="#F14C2D" stroke="#F14C2D" stroke-width="17.7848"/>
<rect x="133.384" y="119.554" width="31.6173" height="31.6173" rx="9.17923" fill="#F14C2D" stroke="#F14C2D" stroke-width="17.7848"/>
<rect x="161.049" y="119.551" width="31.6173" height="31.6173" rx="9.17923" fill="#F14C2D" stroke="#F14C2D" stroke-width="17.7848"/>
<rect x="174.88" y="119.551" width="31.6173" height="31.6173" rx="9.17923" fill="#F14C2D" stroke="#F14C2D" stroke-width="17.7848"/>
<rect x="188.717" y="119.554" width="31.6173" height="31.6173" rx="9.17923" fill="#F14C2D" stroke="#F14C2D" stroke-width="17.7848"/>
<rect x="91.8933" y="133.382" width="31.6173" height="31.6173" rx="9.17923" fill="#F14C2D" stroke="#F14C2D" stroke-width="17.7848"/>
<rect x="105.721" y="133.384" width="31.6173" height="31.6173" rx="9.17923" fill="#F14C2D" stroke="#F14C2D" stroke-width="17.7848"/>
<rect x="119.553" y="133.382" width="31.6173" height="31.6173" rx="9.17923" fill="#F14C2D" stroke="#F14C2D" stroke-width="17.7848"/>
<rect x="133.386" y="133.384" width="31.6173" height="31.6173" rx="9.17923" fill="#F14C2D" stroke="#F14C2D" stroke-width="17.7848"/>
<rect x="147.22" y="133.384" width="31.6173" height="31.6173" rx="9.17923" fill="#F14C2D" stroke="#F14C2D" stroke-width="17.7848"/>
<rect x="174.88" y="133.382" width="31.6173" height="31.6173" rx="9.17923" fill="#F14C2D" stroke="#F14C2D" stroke-width="17.7848"/>
<rect x="202.545" y="133.384" width="31.6173" height="31.6173" rx="9.17923" fill="#F14C2D" stroke="#F14C2D" stroke-width="17.7848"/>
<rect x="216.373" y="133.384" width="31.6173" height="31.6173" rx="9.17923" fill="#F14C2D" stroke="#F14C2D" stroke-width="17.7848"/>
<rect x="91.8898" y="147.214" width="31.6173" height="31.6173" rx="9.17923" fill="#F14C2D" stroke="#F14C2D" stroke-width="17.7848"/>
<rect x="133.387" y="147.22" width="31.6173" height="31.6173" rx="9.17923" fill="#F14C2D" stroke="#F14C2D" stroke-width="17.7848"/>
<rect x="147.218" y="147.217" width="31.6173" height="31.6173" rx="9.17923" fill="#F14C2D" stroke="#F14C2D" stroke-width="17.7848"/>
<rect x="161.051" y="147.214" width="31.6173" height="31.6173" rx="9.17923" fill="#F14C2D" stroke="#F14C2D" stroke-width="17.7848"/>
<rect x="174.883" y="147.217" width="31.6173" height="31.6173" rx="9.17923" fill="#F14C2D" stroke="#F14C2D" stroke-width="17.7848"/>
<rect x="188.719" y="147.214" width="31.6173" height="31.6173" rx="9.17923" fill="#F14C2D" stroke="#F14C2D" stroke-width="17.7848"/>
<rect x="202.548" y="147.217" width="31.6173" height="31.6173" rx="9.17923" fill="#F14C2D" stroke="#F14C2D" stroke-width="17.7848"/>
<rect x="216.378" y="147.214" width="31.6173" height="31.6173" rx="9.17923" fill="#F14C2D" stroke="#F14C2D" stroke-width="17.7848"/>
<rect x="36.5607" y="161.049" width="31.6173" height="31.6173" rx="9.17923" fill="#F14C2D" stroke="#F14C2D" stroke-width="17.7848"/>
<rect x="50.3918" y="161.049" width="31.6173" height="31.6173" rx="9.17923" fill="#F14C2D" stroke="#F14C2D" stroke-width="17.7848"/>
<rect x="64.2233" y="161.049" width="31.6173" height="31.6173" rx="9.17923" fill="#F14C2D" stroke="#F14C2D" stroke-width="17.7848"/>
<rect x="91.8845" y="161.049" width="31.6173" height="31.6173" rx="9.17923" fill="#F14C2D" stroke="#F14C2D" stroke-width="17.7848"/>
<rect x="133.384" y="161.051" width="31.6173" height="31.6173" rx="9.17923" fill="#F14C2D" stroke="#F14C2D" stroke-width="17.7848"/>
<rect x="147.217" y="161.051" width="31.6173" height="31.6173" rx="9.17923" fill="#F14C2D" stroke="#F14C2D" stroke-width="17.7848"/>
<rect x="161.046" y="161.049" width="31.6173" height="31.6173" rx="9.17923" fill="#F14C2D" stroke="#F14C2D" stroke-width="17.7848"/>
<rect x="174.883" y="161.04" width="31.6173" height="31.6173" rx="9.17923" fill="#F14C2D" stroke="#F14C2D" stroke-width="17.7848"/>
<rect x="188.717" y="161.049" width="31.6173" height="31.6173" rx="9.17923" fill="#F14C2D" stroke="#F14C2D" stroke-width="17.7848"/>
<rect x="202.548" y="161.051" width="31.6173" height="31.6173" rx="9.17923" fill="#F14C2D" stroke="#F14C2D" stroke-width="17.7848"/>
<rect x="36.5617" y="174.88" width="31.6173" height="31.6173" rx="9.17923" fill="#F14C2D" stroke="#F14C2D" stroke-width="17.7848"/>
<rect x="50.3933" y="174.88" width="31.6173" height="31.6173" rx="9.17923" fill="#F14C2D" stroke="#F14C2D" stroke-width="17.7848"/>
<rect x="64.2194" y="174.877" width="31.6173" height="31.6173" rx="9.17923" fill="#F14C2D" stroke="#F14C2D" stroke-width="17.7848"/>
<rect x="78.0578" y="174.88" width="31.6173" height="31.6173" rx="9.17923" fill="#F14C2D" stroke="#F14C2D" stroke-width="17.7848"/>
<rect x="91.8898" y="174.884" width="31.6173" height="31.6173" rx="9.17923" fill="#F14C2D" stroke="#F14C2D" stroke-width="17.7848"/>
<rect x="147.216" y="174.884" width="31.6173" height="31.6173" rx="9.17923" fill="#F14C2D" stroke="#F14C2D" stroke-width="17.7848"/>
<rect x="161.049" y="174.877" width="31.6173" height="31.6173" rx="9.17923" fill="#F14C2D" stroke="#F14C2D" stroke-width="17.7848"/>
<rect x="174.883" y="174.884" width="31.6173" height="31.6173" rx="9.17923" fill="#F14C2D" stroke="#F14C2D" stroke-width="17.7848"/>
<rect x="188.715" y="174.884" width="31.6173" height="31.6173" rx="9.17923" fill="#F14C2D" stroke="#F14C2D" stroke-width="17.7848"/>
<rect x="202.542" y="174.877" width="31.6173" height="31.6173" rx="9.17923" fill="#F14C2D" stroke="#F14C2D" stroke-width="17.7848"/>
<rect x="216.375" y="174.884" width="31.6173" height="31.6173" rx="9.17923" fill="#F14C2D" stroke="#F14C2D" stroke-width="17.7848"/>
<rect x="78.0603" y="188.714" width="31.6173" height="31.6173" rx="9.17923" fill="#F14C2D" stroke="#F14C2D" stroke-width="17.7848"/>
<rect x="91.8918" y="188.71" width="31.6173" height="31.6173" rx="9.17923" fill="#F14C2D" stroke="#F14C2D" stroke-width="17.7848"/>
<rect x="133.387" y="188.714" width="31.6173" height="31.6173" rx="9.17923" fill="#F14C2D" stroke="#F14C2D" stroke-width="17.7848"/>
<rect x="161.051" y="188.71" width="31.6173" height="31.6173" rx="9.17923" fill="#F14C2D" stroke="#F14C2D" stroke-width="17.7848"/>
<rect x="174.879" y="188.71" width="31.6173" height="31.6173" rx="9.17923" fill="#F14C2D" stroke="#F14C2D" stroke-width="17.7848"/>
<rect x="202.547" y="188.71" width="31.6173" height="31.6173" rx="9.17923" fill="#F14C2D" stroke="#F14C2D" stroke-width="17.7848"/>
<rect x="216.38" y="188.714" width="31.6173" height="31.6173" rx="9.17923" fill="#F14C2D" stroke="#F14C2D" stroke-width="17.7848"/>
<rect x="91.8845" y="202.544" width="31.6173" height="31.6173" rx="9.17923" fill="#F14C2D" stroke="#F14C2D" stroke-width="17.7848"/>
<rect x="119.555" y="202.54" width="31.6173" height="31.6173" rx="9.17923" fill="#F14C2D" stroke="#F14C2D" stroke-width="17.7848"/>
<rect x="161.051" y="202.54" width="31.6173" height="31.6173" rx="9.17923" fill="#F14C2D" stroke="#F14C2D" stroke-width="17.7848"/>
<rect x="174.883" y="202.544" width="31.6173" height="31.6173" rx="9.17923" fill="#F14C2D" stroke="#F14C2D" stroke-width="17.7848"/>
<rect x="91.8898" y="216.377" width="31.6173" height="31.6173" rx="9.17923" fill="#F14C2D" stroke="#F14C2D" stroke-width="17.7848"/>
<rect x="105.717" y="216.377" width="31.6173" height="31.6173" rx="9.17923" fill="#F14C2D" stroke="#F14C2D" stroke-width="17.7848"/>
<rect x="91.8879" y="230.211" width="31.6173" height="31.6173" rx="9.17923" fill="#F14C2D" stroke="#F14C2D" stroke-width="17.7848"/>
<rect x="91.8879" y="244.037" width="31.6173" height="31.6173" rx="9.17923" fill="#F14C2D" stroke="#F14C2D" stroke-width="17.7848"/>
<rect x="119.553" y="244.043" width="31.6173" height="31.6173" rx="9.17923" fill="#F14C2D" stroke="#F14C2D" stroke-width="17.7848"/>
<rect x="133.384" y="244.04" width="31.6173" height="31.6173" rx="9.17923" fill="#F14C2D" stroke="#F14C2D" stroke-width="17.7848"/>
<rect x="147.216" y="244.04" width="31.6173" height="31.6173" rx="9.17923" fill="#F14C2D" stroke="#F14C2D" stroke-width="17.7848"/>
<rect x="161.049" y="244.04" width="31.6173" height="31.6173" rx="9.17923" fill="#F14C2D" stroke="#F14C2D" stroke-width="17.7848"/>
<rect x="91.8898" y="257.873" width="31.6173" height="31.6173" rx="9.17923" fill="#F14C2D" stroke="#F14C2D" stroke-width="17.7848"/>
<rect x="105.721" y="257.87" width="31.6173" height="31.6173" rx="9.17923" fill="#F14C2D" stroke="#F14C2D" stroke-width="17.7848"/>
<rect x="119.554" y="257.873" width="31.6173" height="31.6173" rx="9.17923" fill="#F14C2D" stroke="#F14C2D" stroke-width="17.7848"/>
<rect x="133.389" y="257.874" width="31.6173" height="31.6173" rx="9.17923" fill="#F14C2D" stroke="#F14C2D" stroke-width="17.7848"/>
<rect x="147.223" y="257.873" width="31.6173" height="31.6173" rx="9.17923" fill="#F14C2D" stroke="#F14C2D" stroke-width="17.7848"/>
<rect x="161.051" y="257.873" width="31.6173" height="31.6173" rx="9.17923" fill="#F14C2D" stroke="#F14C2D" stroke-width="17.7848"/>
<rect x="91.8879" y="271.706" width="31.6173" height="31.6173" rx="9.17923" fill="#F14C2D" stroke="#F14C2D" stroke-width="17.7848"/>
<rect x="91.8845" y="285.54" width="31.6173" height="31.6173" rx="9.17923" fill="#F14C2D" stroke="#F14C2D" stroke-width="17.7848"/>
<rect x="91.8898" y="299.369" width="31.6173" height="31.6173" rx="9.17923" fill="#F14C2D" stroke="#F14C2D" stroke-width="17.7848"/>
<rect x="59.4257" y="19.7162" width="13.5457" height="13.5457" rx="6.77284" fill="#FDF5ED" stroke="#F14C2D" stroke-width="0.286851"/>
<rect x="73.2591" y="19.7162" width="13.5457" height="13.5457" rx="6.77284" fill="#EDCAB4" stroke="#F14C2D" stroke-width="0.286851"/>
<rect x="45.5941" y="33.5531" width="13.5457" height="13.5457" rx="6.77284" fill="#EDCAB4" stroke="#F14C2D" stroke-width="0.286851"/>
<rect x="59.4276" y="33.5453" width="13.5457" height="13.5457" rx="6.77284" fill="#FDF5ED" stroke="#F14C2D" stroke-width="0.286851"/>
<rect x="73.2533" y="33.5531" width="13.5457" height="13.5457" rx="6.77284" fill="#FDF5ED" stroke="#F14C2D" stroke-width="0.286851"/>
<rect x="100.926" y="33.5531" width="13.5457" height="13.5457" rx="6.77284" fill="#FDF5ED" stroke="#F14C2D" stroke-width="0.286851"/>
<rect x="114.757" y="33.5507" width="13.5457" height="13.5457" rx="6.77284" fill="#FDF5ED" stroke="#F14C2D" stroke-width="0.286851"/>
<rect x="128.59" y="33.5531" width="13.5457" height="13.5457" rx="6.77284" fill="white" stroke="#F14C2D" stroke-width="0.286851"/>
<rect x="59.4257" y="47.3832" width="13.5457" height="13.5457" rx="6.77284" fill="#FDF5ED" stroke="#F14C2D" stroke-width="0.286851"/>
<rect x="73.2591" y="47.3866" width="13.5457" height="13.5457" rx="6.77284" fill="#FDF5ED" stroke="#F14C2D" stroke-width="0.286851"/>
<rect x="87.0922" y="47.3895" width="13.5457" height="13.5457" rx="6.77284" fill="#FDF5ED" stroke="#F14C2D" stroke-width="0.286851"/>
<rect x="100.922" y="47.3798" width="13.5457" height="13.5457" rx="6.77284" fill="#FDF5ED" stroke="#F14C2D" stroke-width="0.286851"/>
<rect x="114.751" y="47.3866" width="13.5457" height="13.5457" rx="6.77284" fill="#FDF5ED" stroke="#F14C2D" stroke-width="0.286851"/>
<rect x="17.9281" y="61.2157" width="13.5457" height="13.5457" rx="6.77284" fill="#FDF5ED" stroke="#F14C2D" stroke-width="0.286851"/>
<rect x="31.7606" y="61.2201" width="13.5457" height="13.5457" rx="6.77284" fill="#FDF5ED" stroke="#F14C2D" stroke-width="0.286851"/>
<rect x="45.5975" y="61.2201" width="13.5457" height="13.5457" rx="6.77284" fill="#FDF5ED" stroke="#F14C2D" stroke-width="0.286851"/>
<rect x="59.4276" y="61.2157" width="13.5457" height="13.5457" rx="6.77284" fill="#FFB6B1" stroke="#F14C2D" stroke-width="0.286851"/>
<rect x="73.2611" y="61.2157" width="13.5457" height="13.5457" rx="6.77284" fill="#EDCAB4" stroke="#F14C2D" stroke-width="0.286851"/>
<rect x="87.0887" y="61.2201" width="13.5457" height="13.5457" rx="6.77284" fill="#EDCAB4" stroke="#F14C2D" stroke-width="0.286851"/>
<rect x="100.924" y="61.2157" width="13.5457" height="13.5457" rx="6.77284" fill="#FDF5ED" stroke="#F14C2D" stroke-width="0.286851"/>
<rect x="17.931" y="75.0428" width="13.5457" height="13.5457" rx="6.77284" fill="#FDF5ED" stroke="#F14C2D" stroke-width="0.286851"/>
<rect x="31.766" y="75.0497" width="13.5457" height="13.5457" rx="6.77284" fill="#FDF5ED" stroke="#F14C2D" stroke-width="0.286851"/>
<rect x="45.5975" y="75.0497" width="13.5457" height="13.5457" rx="6.77284" fill="#FDF5ED" stroke="#F14C2D" stroke-width="0.286851"/>
<rect x="59.4257" y="75.0497" width="13.5457" height="13.5457" rx="6.77284" fill="#FDF5ED" stroke="#F14C2D" stroke-width="0.286851"/>
<rect x="73.2572" y="75.0458" width="13.5457" height="13.5457" rx="6.77284" fill="#FFFBF6" stroke="#F14C2D" stroke-width="0.286851"/>
<rect x="87.0936" y="75.0526" width="13.5457" height="13.5457" rx="6.77284" fill="#F4846E" stroke="#F14C2D" stroke-width="0.286851"/>
<rect x="100.926" y="75.0458" width="13.5457" height="13.5457" rx="6.77284" fill="#FDF5ED" stroke="#F14C2D" stroke-width="0.286851"/>
<rect x="114.759" y="75.0497" width="13.5457" height="13.5457" rx="6.77284" fill="#F4F0EB" stroke="#F14C2D" stroke-width="0.286851"/>
<rect x="59.4291" y="88.8754" width="13.5457" height="13.5457" rx="6.77284" fill="#FDF5ED" stroke="#F14C2D" stroke-width="0.286851"/>
<rect x="73.2626" y="88.8788" width="13.5457" height="13.5457" rx="6.77284" fill="#FDF5ED" stroke="#F14C2D" stroke-width="0.286851"/>
<rect x="87.0922" y="88.8866" width="13.5457" height="13.5457" rx="6.77284" fill="#FDF5ED" stroke="#F14C2D" stroke-width="0.286851"/>
<rect x="100.924" y="88.8822" width="13.5457" height="13.5457" rx="6.77284" fill="#FDF5ED" stroke="#F14C2D" stroke-width="0.286851"/>
<rect x="114.755" y="88.8793" width="13.5457" height="13.5457" rx="6.77284" fill="#FDF5ED" stroke="#F14C2D" stroke-width="0.286851"/>
<rect x="128.591" y="88.8788" width="13.5457" height="13.5457" rx="6.77284" fill="#EDCAB4" stroke="#F14C2D" stroke-width="0.286851"/>
<rect x="45.5966" y="102.713" width="13.5457" height="13.5457" rx="6.77284" fill="#FDF5ED" stroke="#F14C2D" stroke-width="0.286851"/>
<rect x="59.4247" y="102.709" width="13.5457" height="13.5457" rx="6.77284" fill="#FDF5ED" stroke="#F14C2D" stroke-width="0.286851"/>
<rect x="73.2552" y="102.713" width="13.5457" height="13.5457" rx="6.77284" fill="#FDF5ED" stroke="#F14C2D" stroke-width="0.286851"/>
<rect x="87.0887" y="102.716" width="13.5457" height="13.5457" rx="6.77284" fill="#284F3E" stroke="#F14C2D" stroke-width="0.286851"/>
<rect x="100.928" y="102.713" width="13.5457" height="13.5457" rx="6.77284" fill="#EDCAB4" stroke="#F14C2D" stroke-width="0.286851"/>
<rect x="114.761" y="102.713" width="13.5457" height="13.5457" rx="6.77284" fill="#FDF5ED" stroke="#F14C2D" stroke-width="0.286851"/>
<rect x="128.585" y="102.713" width="13.5457" height="13.5457" rx="6.77284" fill="#7DA090" stroke="#F14C2D" stroke-width="0.286851"/>
<rect x="142.418" y="102.716" width="13.5457" height="13.5457" rx="6.77284" fill="#7DA090" stroke="#F14C2D" stroke-width="0.286851"/>
<rect x="156.256" y="102.713" width="13.5457" height="13.5457" rx="6.77284" fill="#7DA090" stroke="#F14C2D" stroke-width="0.286851"/>
<rect x="45.5941" y="116.549" width="13.5457" height="13.5457" rx="6.77284" fill="#FDF5ED" stroke="#F14C2D" stroke-width="0.286851"/>
<rect x="59.4257" y="116.545" width="13.5457" height="13.5457" rx="6.77284" fill="#FDF5ED" stroke="#F14C2D" stroke-width="0.286851"/>
<rect x="73.2611" y="116.538" width="13.5457" height="13.5457" rx="6.77284" fill="#FDF5ED" stroke="#F14C2D" stroke-width="0.286851"/>
<rect x="87.0936" y="116.549" width="13.5457" height="13.5457" rx="6.77284" fill="#284F3E" stroke="#F14C2D" stroke-width="0.286851"/>
<rect x="114.755" y="116.545" width="13.5457" height="13.5457" rx="6.77284" fill="#7DA090" stroke="#F14C2D" stroke-width="0.286851"/>
<rect x="128.585" y="116.542" width="13.5457" height="13.5457" rx="6.77284" fill="#47827C" stroke="#F14C2D" stroke-width="0.286851"/>
<rect x="142.422" y="116.545" width="13.5457" height="13.5457" rx="6.77284" fill="#7DA090" stroke="#F14C2D" stroke-width="0.286851"/>
<rect x="156.253" y="116.542" width="13.5457" height="13.5457" rx="6.77284" fill="#7DA090" stroke="#F14C2D" stroke-width="0.286851"/>
<rect x="170.082" y="116.545" width="13.5457" height="13.5457" rx="6.77284" fill="#EDCAB4" stroke="#F14C2D" stroke-width="0.286851"/>
<rect x="183.914" y="116.545" width="13.5457" height="13.5457" rx="6.77284" fill="#FDF5ED" stroke="#F14C2D" stroke-width="0.286851"/>
<rect x="197.755" y="116.545" width="13.5457" height="13.5457" rx="6.77284" fill="#FDF5ED" stroke="#F14C2D" stroke-width="0.286851"/>
<rect x="59.4305" y="130.376" width="13.5457" height="13.5457" rx="6.77284" fill="#7DA090" stroke="#F14C2D" stroke-width="0.286851"/>
<rect x="114.755" y="130.379" width="13.5457" height="13.5457" rx="6.77284" fill="#47827C" stroke="#F14C2D" stroke-width="0.286851"/>
<rect x="128.59" y="130.371" width="13.5457" height="13.5457" rx="6.77284" fill="#7DA090" stroke="#F14C2D" stroke-width="0.286851"/>
<rect x="142.42" y="130.379" width="13.5457" height="13.5457" rx="6.77284" fill="#7DA090" stroke="#F14C2D" stroke-width="0.286851"/>
<rect x="170.082" y="130.379" width="13.5457" height="13.5457" rx="6.77284" fill="#EDCAB4" stroke="#F14C2D" stroke-width="0.286851"/>
<rect x="183.912" y="130.376" width="13.5457" height="13.5457" rx="6.77284" fill="#FDF5ED" stroke="#F14C2D" stroke-width="0.286851"/>
<rect x="197.753" y="130.382" width="13.5457" height="13.5457" rx="6.77284" fill="#EDCAB4" stroke="#F14C2D" stroke-width="0.286851"/>
<rect x="100.928" y="144.208" width="13.5457" height="13.5457" rx="6.77284" fill="#284F3E" stroke="#F14C2D" stroke-width="0.286851"/>
<rect x="87.68" y="130.605" width="13.5457" height="13.5457" rx="6.77284" fill="#284F3E" stroke="#F14C2D" stroke-width="0.286851"/>
<rect x="114.757" y="144.212" width="13.5457" height="13.5457" rx="6.77284" fill="#7DA090" stroke="#F14C2D" stroke-width="0.286851"/>
<rect x="128.589" y="144.205" width="13.5457" height="13.5457" rx="6.77284" fill="#7DA090" stroke="#F14C2D" stroke-width="0.286851"/>
<rect x="142.422" y="144.212" width="13.5457" height="13.5457" rx="6.77284" fill="#EDCAB4" stroke="#F14C2D" stroke-width="0.286851"/>
<rect x="156.256" y="144.208" width="13.5457" height="13.5457" rx="6.77284" fill="#F4F0EB" stroke="#F14C2D" stroke-width="0.286851"/>
<rect x="183.919" y="144.212" width="13.5457" height="13.5457" rx="6.77284" fill="#FDF5ED" stroke="#F14C2D" stroke-width="0.286851"/>
<rect x="211.58" y="144.208" width="13.5457" height="13.5457" rx="6.77284" fill="#FDF5ED" stroke="#F14C2D" stroke-width="0.286851"/>
<rect x="225.409" y="144.208" width="13.5457" height="13.5457" rx="6.77284" fill="#FDF5ED" stroke="#F14C2D" stroke-width="0.286851"/>
<rect x="100.922" y="158.041" width="13.5457" height="13.5457" rx="6.77284" fill="#284F3E" stroke="#F14C2D" stroke-width="0.286851"/>
<rect x="142.423" y="158.05" width="13.5457" height="13.5457" rx="6.77284" fill="#FDF5ED" stroke="#F14C2D" stroke-width="0.286851"/>
<rect x="156.254" y="158.041" width="13.5457" height="13.5457" rx="6.77284" fill="#FDF5ED" stroke="#F14C2D" stroke-width="0.286851"/>
<rect x="170.087" y="158.041" width="13.5457" height="13.5457" rx="6.77284" fill="#FDF5ED" stroke="#F14C2D" stroke-width="0.286851"/>
<path d="M190.692 158.05C194.432 158.05 197.465 161.082 197.465 164.822C197.465 168.563 194.432 171.596 190.692 171.596C186.951 171.596 183.919 168.563 183.919 164.822C183.92 161.082 186.952 158.05 190.692 158.05Z" fill="#FFB6B1" stroke="#F14C2D" stroke-width="0.286851"/>
<rect x="197.755" y="158.041" width="13.5457" height="13.5457" rx="6.77284" fill="#FDF5ED" stroke="#F14C2D" stroke-width="0.286851"/>
<rect x="211.584" y="158.046" width="13.5457" height="13.5457" rx="6.77284" fill="#FDF5ED" stroke="#F14C2D" stroke-width="0.286851"/>
<rect x="225.414" y="158.037" width="13.5457" height="13.5457" rx="6.77284" fill="#FDF5ED" stroke="#F14C2D" stroke-width="0.286851"/>
<rect x="45.5966" y="171.875" width="13.5457" height="13.5457" rx="6.77284" fill="#7DA090" stroke="#F14C2D" stroke-width="0.286851"/>
<rect x="59.4276" y="171.875" width="13.5457" height="13.5457" rx="6.77284" fill="#7DA090" stroke="#F14C2D" stroke-width="0.286851"/>
<rect x="73.2611" y="171.875" width="13.5457" height="13.5457" rx="6.77284" fill="#7DA090" stroke="#F14C2D" stroke-width="0.286851"/>
<rect x="100.92" y="171.875" width="13.5457" height="13.5457" rx="6.77284" fill="#284F3E" stroke="#F14C2D" stroke-width="0.286851"/>
<rect x="142.42" y="171.875" width="13.5457" height="13.5457" rx="6.77284" fill="#FDF5ED" stroke="#F14C2D" stroke-width="0.286851"/>
<rect x="156.251" y="171.875" width="13.5457" height="13.5457" rx="6.77284" fill="#FDF5ED" stroke="#F14C2D" stroke-width="0.286851"/>
<rect x="170.081" y="171.875" width="13.5457" height="13.5457" rx="6.77284" fill="#FDF5ED" stroke="#F14C2D" stroke-width="0.286851"/>
<rect x="183.914" y="171.868" width="13.5457" height="13.5457" rx="6.77284" fill="#FDF5ED" stroke="#F14C2D" stroke-width="0.286851"/>
<rect x="197.749" y="171.875" width="13.5457" height="13.5457" rx="6.77284" fill="#EDCAB4" stroke="#F14C2D" stroke-width="0.286851"/>
<rect x="211.584" y="171.875" width="13.5457" height="13.5457" rx="6.77284" fill="#EDCAB4" stroke="#F14C2D" stroke-width="0.286851"/>
<rect x="45.5966" y="185.708" width="13.5457" height="13.5457" rx="6.77284" fill="#7DA090" stroke="#F14C2D" stroke-width="0.286851"/>
<rect x="59.4291" y="185.704" width="13.5457" height="13.5457" rx="6.77284" fill="#7DA090" stroke="#F14C2D" stroke-width="0.286851"/>
<rect x="73.2552" y="185.702" width="13.5457" height="13.5457" rx="6.77284" fill="#7DA090" stroke="#F14C2D" stroke-width="0.286851"/>
<rect x="87.0922" y="185.704" width="13.5457" height="13.5457" rx="6.77284" fill="#7DA090" stroke="#F14C2D" stroke-width="0.286851"/>
<rect x="100.926" y="185.708" width="13.5457" height="13.5457" rx="6.77284" fill="#284F3E" stroke="#F14C2D" stroke-width="0.286851"/>
<rect x="156.251" y="185.713" width="13.5457" height="13.5457" rx="6.77284" fill="#284F3E" stroke="#F14C2D" stroke-width="0.286851"/>
<rect x="170.085" y="185.702" width="13.5457" height="13.5457" rx="6.77284" fill="#FDF5ED" stroke="#F14C2D" stroke-width="0.286851"/>
<rect x="183.919" y="185.708" width="13.5457" height="13.5457" rx="6.77284" fill="#FDF5ED" stroke="#F14C2D" stroke-width="0.286851"/>
<rect x="197.751" y="185.713" width="13.5457" height="13.5457" rx="6.77284" fill="#FDF5ED" stroke="#F14C2D" stroke-width="0.286851"/>
<rect x="211.578" y="185.704" width="13.5457" height="13.5457" rx="6.77284" fill="#FDF5ED" stroke="#F14C2D" stroke-width="0.286851"/>
<rect x="225.411" y="185.708" width="13.5457" height="13.5457" rx="6.77284" fill="#FDF5ED" stroke="#F14C2D" stroke-width="0.286851"/>
<rect x="87.0961" y="199.542" width="13.5457" height="13.5457" rx="6.77284" fill="#548477" stroke="#F14C2D" stroke-width="0.286851"/>
<rect x="100.926" y="199.538" width="13.5457" height="13.5457" rx="6.77284" fill="#284F3E" stroke="#F14C2D" stroke-width="0.286851"/>
<rect x="142.423" y="199.542" width="13.5457" height="13.5457" rx="6.77284" fill="#284F3E" stroke="#F14C2D" stroke-width="0.286851"/>
<rect x="170.082" y="199.538" width="13.5457" height="13.5457" rx="6.77284" fill="#FDF5ED" stroke="#F14C2D" stroke-width="0.286851"/>
<rect x="183.915" y="199.542" width="13.5457" height="13.5457" rx="6.77284" fill="#FDF5ED" stroke="#F14C2D" stroke-width="0.286851"/>
<rect x="211.583" y="199.538" width="13.5457" height="13.5457" rx="6.77284" fill="#FDF5ED" stroke="#F14C2D" stroke-width="0.286851"/>
<rect x="225.415" y="199.538" width="13.5457" height="13.5457" rx="6.77284" fill="#FDF5ED" stroke="#F14C2D" stroke-width="0.286851"/>
<rect x="100.92" y="213.37" width="13.5457" height="13.5457" rx="6.77284" fill="#284F3E" stroke="#F14C2D" stroke-width="0.286851"/>
<rect x="128.591" y="213.37" width="13.5457" height="13.5457" rx="6.77284" fill="#284F3E" stroke="#F14C2D" stroke-width="0.286851"/>
<rect x="170.087" y="213.365" width="13.5457" height="13.5457" rx="6.77284" fill="#FDF5ED" stroke="#F14C2D" stroke-width="0.286851"/>
<rect x="183.922" y="213.37" width="13.5457" height="13.5457" rx="6.77284" fill="#FDF5ED" stroke="#F14C2D" stroke-width="0.286851"/>
<rect x="100.926" y="227.202" width="13.5457" height="13.5457" rx="6.77284" fill="#284F3E" stroke="#F14C2D" stroke-width="0.286851"/>
<rect x="114.753" y="227.202" width="13.5457" height="13.5457" rx="6.77284" fill="#284F3E" stroke="#F14C2D" stroke-width="0.286851"/>
<rect x="100.924" y="241.037" width="13.5457" height="13.5457" rx="6.77284" fill="#284F3E" stroke="#F14C2D" stroke-width="0.286851"/>
<rect x="114.755" y="241.034" width="13.5457" height="13.5457" rx="6.77284" fill="#284F3E" stroke="#F14C2D" stroke-width="0.286851"/>
<rect x="100.924" y="254.864" width="13.5457" height="13.5457" rx="6.77284" fill="#284F3E" stroke="#F14C2D" stroke-width="0.286851"/>
<rect x="128.589" y="254.868" width="13.5457" height="13.5457" rx="6.77284" fill="#7DA090" stroke="#F14C2D" stroke-width="0.286851"/>
<rect x="142.42" y="254.868" width="13.5457" height="13.5457" rx="6.77284" fill="#7DA090" stroke="#F14C2D" stroke-width="0.286851"/>
<rect x="156.251" y="254.864" width="13.5457" height="13.5457" rx="6.77284" fill="#7DA090" stroke="#F14C2D" stroke-width="0.286851"/>
<rect x="170.081" y="254.871" width="13.5457" height="13.5457" rx="6.77284" fill="#7DA090" stroke="#F14C2D" stroke-width="0.286851"/>
<rect x="100.922" y="268.701" width="13.5457" height="13.5457" rx="6.77284" fill="#284F3E" stroke="#F14C2D" stroke-width="0.286851"/>
<rect x="114.759" y="268.701" width="13.5457" height="13.5457" rx="6.77284" fill="#548477" stroke="#F14C2D" stroke-width="0.286851"/>
<rect x="128.59" y="268.701" width="13.5457" height="13.5457" rx="6.77284" fill="#7DA090" stroke="#F14C2D" stroke-width="0.286851"/>
<rect x="142.425" y="268.701" width="13.5457" height="13.5457" rx="6.77284" fill="#7DA090" stroke="#F14C2D" stroke-width="0.286851"/>
<rect x="156.253" y="268.701" width="13.5457" height="13.5457" rx="6.77284" fill="#7DA090" stroke="#F14C2D" stroke-width="0.286851"/>
<rect x="170.087" y="268.704" width="13.5457" height="13.5457" rx="6.77284" fill="#7DA090" stroke="#F14C2D" stroke-width="0.286851"/>
<rect x="100.924" y="282.53" width="13.5457" height="13.5457" rx="6.77284" fill="#284F3E" stroke="#F14C2D" stroke-width="0.286851"/>
<rect x="100.92" y="296.364" width="13.5457" height="13.5457" rx="6.77284" fill="#284F3E" stroke="#F14C2D" stroke-width="0.286851"/>
<rect x="100.926" y="310.193" width="13.5457" height="13.5457" rx="6.77284" fill="#284F3E" stroke="#F14C2D" stroke-width="0.286851"/>
</svg>
