<svg width="123" height="118" viewBox="0 0 123 118" fill="none" xmlns="http://www.w3.org/2000/svg">
<path d="M91.7348 0H30.6198C13.7357 0 0 13.7397 0 30.6288V86.5567C0 103.446 13.7357 117.185 30.6198 117.185H91.7348C108.619 117.185 122.355 103.446 122.355 86.5567V30.6288C122.355 13.7397 108.619 0 91.7348 0ZM10.8017 30.6288C10.8017 19.6993 19.6935 10.8049 30.6198 10.8049H91.7348C102.661 10.8049 111.553 19.6993 111.553 30.6288V86.5567C111.553 97.4861 102.661 106.381 91.7348 106.381H30.6198C19.6935 106.381 10.8017 97.4861 10.8017 86.5567V30.6288Z" fill="#B5C0C6"/>
<path d="M61.1769 87.0757C76.8778 87.0757 89.6585 74.2981 89.6585 58.5857C89.6585 42.8733 76.8847 30.0957 61.1769 30.0957C45.4691 30.0957 32.6953 42.8733 32.6953 58.5857C32.6953 74.2981 45.4691 87.0757 61.1769 87.0757ZM61.1769 40.9075C70.9268 40.9075 78.8568 48.8399 78.8568 58.5926C78.8568 68.3454 70.9268 76.2778 61.1769 76.2778C51.427 76.2778 43.497 68.3454 43.497 58.5926C43.497 48.8399 51.427 40.9075 61.1769 40.9075Z" fill="#B5C0C6"/>
<path d="M92.295 34.6981C96.523 34.6981 99.969 31.258 99.969 27.0219C99.969 22.7858 96.5299 19.3457 92.295 19.3457C88.0602 19.3457 84.6211 22.7858 84.6211 27.0219C84.6211 31.258 88.0602 34.6981 92.295 34.6981Z" fill="#B5C0C6"/>
</svg>
