<svg width="219" height="219" viewBox="0 0 219 219" fill="none" xmlns="http://www.w3.org/2000/svg">
<rect width="219" height="219" rx="52" fill="#ED3815"/>
<path d="M125.604 145.664V144.687C125.604 135.24 117.946 127.582 108.5 127.582C99.0532 127.582 91.3953 135.24 91.3953 144.687V145.664C91.3953 155.111 99.0532 162.768 108.5 162.768C117.946 162.768 125.604 155.111 125.604 145.664Z" fill="#FDF5ED"/>
<path d="M143.686 93.3721H142.709C133.262 93.3721 125.604 101.03 125.604 110.477C125.604 119.923 133.262 127.581 142.709 127.581H143.686C153.133 127.581 160.791 119.923 160.791 110.477C160.791 101.03 153.133 93.3721 143.686 93.3721Z" fill="#FDF5ED"/>
<path d="M125.604 76.2684V75.291C125.604 65.8445 117.946 58.1865 108.5 58.1865C99.0532 58.1865 91.3953 65.8445 91.3953 75.291V76.2684C91.3953 85.715 99.0532 93.373 108.5 93.373C117.946 93.373 125.604 85.715 125.604 76.2684Z" fill="#FDF5ED"/>
<path d="M91.3953 110.477C91.3953 119.923 99.0532 127.581 108.5 127.581C117.946 127.581 125.604 119.923 125.604 110.477C125.604 101.03 117.946 93.3721 108.5 93.3721C99.0532 93.3721 91.3953 101.03 91.3953 110.477Z" fill="#FDF5ED"/>
<path d="M74.2907 93.3721H73.3133C63.8667 93.3721 56.2087 101.03 56.2087 110.477C56.2087 119.923 63.8667 127.581 73.3133 127.581H74.2907C83.7372 127.581 91.3952 119.923 91.3952 110.477C91.3952 101.03 83.7372 93.3721 74.2907 93.3721Z" fill="#FDF5ED"/>
<path d="M56.209 145.664V144.687C56.209 135.24 48.5511 127.582 39.1045 127.582C29.658 127.582 22 135.24 22 144.687V145.664C22 155.111 29.658 162.768 39.1045 162.768C48.5511 162.768 56.209 155.111 56.209 145.664Z" fill="#FDF5ED"/>
<path d="M74.2907 162.769H73.3133C63.8667 162.769 56.2087 170.427 56.2087 179.873C56.2087 189.32 63.8667 196.978 73.3133 196.978H74.2907C83.7372 196.978 91.3952 189.32 91.3952 179.873C91.3952 170.427 83.7372 162.769 74.2907 162.769Z" fill="#FDF5ED"/>
<path d="M22 179.873C22 189.32 29.658 196.978 39.1045 196.978C48.5511 196.978 56.209 189.32 56.209 179.873C56.209 170.427 48.5511 162.769 39.1045 162.769C29.658 162.769 22 170.427 22 179.873Z" fill="#FDF5ED"/>
<path d="M143.686 162.769H142.709C133.262 162.769 125.604 170.427 125.604 179.873C125.604 189.32 133.262 196.978 142.709 196.978H143.686C153.133 196.978 160.791 189.32 160.791 179.873C160.791 170.427 153.133 162.769 143.686 162.769Z" fill="#FDF5ED"/>
<path d="M160.791 179.873C160.791 189.32 168.449 196.978 177.896 196.978C187.342 196.978 195 189.32 195 179.873C195 170.427 187.342 162.769 177.896 162.769C168.449 162.769 160.791 170.427 160.791 179.873Z" fill="#FDF5ED"/>
<path d="M195 145.664V144.687C195 135.24 187.342 127.582 177.896 127.582C168.449 127.582 160.791 135.24 160.791 144.687V145.664C160.791 155.111 168.449 162.768 177.896 162.768C187.342 162.768 195 155.111 195 145.664Z" fill="#FDF5ED"/>
<path d="M195 76.2684V75.291C195 65.8445 187.342 58.1865 177.896 58.1865C168.449 58.1865 160.791 65.8445 160.791 75.291V76.2684C160.791 85.715 168.449 93.373 177.896 93.373C187.342 93.373 195 85.715 195 76.2684Z" fill="#FDF5ED"/>
<path d="M195 41.0819V40.1045C195 30.658 187.342 23 177.896 23C168.449 23 160.791 30.658 160.791 40.1045V41.0819C160.791 50.5285 168.449 58.1865 177.896 58.1865C187.342 58.1865 195 50.5285 195 41.0819Z" fill="#FDF5ED"/>
<path d="M125.604 40.5932C125.604 50.3097 133.481 58.1865 143.198 58.1865C152.914 58.1865 160.791 50.3097 160.791 40.5932C160.791 30.8768 152.914 23 143.198 23C133.481 23 125.604 30.8768 125.604 40.5932Z" fill="#FDF5ED"/>
<path d="M56.2087 40.5932C56.2087 50.3097 64.0855 58.1865 73.802 58.1865C83.5184 58.1865 91.3952 50.3097 91.3952 40.5932C91.3952 30.8768 83.5184 23 73.802 23C64.0855 23 56.2087 30.8768 56.2087 40.5932Z" fill="#FDF5ED"/>
<path d="M56.209 41.0819V40.1045C56.209 30.658 48.5511 23 39.1045 23C29.658 23 22 30.658 22 40.1045V41.0819C22 50.5285 29.658 58.1865 39.1045 58.1865C48.5511 58.1865 56.209 50.5285 56.209 41.0819Z" fill="#FDF5ED"/>
<path d="M56.209 76.2684V75.291C56.209 65.8445 48.5511 58.1865 39.1045 58.1865C29.658 58.1865 22 65.8445 22 75.291V76.2684C22 85.715 29.658 93.373 39.1045 93.373C48.5511 93.373 56.209 85.715 56.209 76.2684Z" fill="#FDF5ED"/>
</svg>
