<svg width="121" height="100" viewBox="0 0 121 100" fill="none" xmlns="http://www.w3.org/2000/svg">
<path d="M3.16652 45.4811C3.44331 45.3427 3.72023 45.2112 3.9901 45.0866C8.68167 42.9132 13.4355 40.8782 18.1825 38.8432C18.4385 38.8432 18.8674 38.5455 19.1096 38.4486C19.4763 38.2894 19.8431 38.1372 20.2099 37.978C20.9157 37.6734 21.6215 37.3757 22.3204 37.0712C23.7321 36.469 25.1367 35.8668 26.5483 35.2646C29.3646 34.0602 32.1809 32.8558 34.9973 31.6445C40.6299 29.2358 46.2696 26.8201 51.9023 24.4113C57.5349 22.0025 63.1744 19.5868 68.8071 17.178C74.4398 14.7693 80.0793 12.3536 85.7119 9.94482C91.3446 7.53605 96.9843 5.12031 102.617 2.71153C103.869 2.17164 105.226 1.36878 106.568 1.13344C107.696 0.932704 108.796 0.545062 109.931 0.330488C112.083 -0.0778963 114.456 -0.244046 116.519 0.648862C117.231 0.960341 117.889 1.39641 118.435 1.94323C121.051 4.53197 120.684 8.78194 120.131 12.4228C116.276 37.798 112.422 63.1801 108.561 88.5552C108.035 92.0369 107.315 95.8577 104.568 98.0588C102.243 99.9207 98.9355 100.128 96.0638 99.3394C93.1921 98.5434 90.6596 96.8752 88.1754 95.2347C77.8719 88.4099 67.5616 81.5851 57.2581 74.7602C54.8085 73.1405 52.0822 71.0224 52.1099 68.0807C52.1237 66.3087 53.1823 64.7306 54.2618 63.3254C63.2159 51.6415 76.1351 43.6122 85.7466 32.4682C87.1028 30.8969 88.1685 28.0591 86.3071 27.1523C85.2 26.6124 83.9266 27.3461 82.9163 28.0452C70.2117 36.8705 57.5142 45.7026 44.8095 54.5278C40.6646 57.4073 36.319 60.3699 31.323 61.0759C26.8529 61.7127 22.3551 60.4668 18.0302 59.1932C14.4043 58.1272 10.7852 57.0336 7.18 55.9053C5.26323 55.3101 3.28418 54.6663 1.80336 53.3165C0.322538 51.9668 -0.528473 49.6965 0.364171 47.8968C0.924669 46.7686 2.01109 46.0556 3.15284 45.4742L3.16652 45.4811Z" fill="#B4C1C7"/>
</svg>
