<svg width="87" height="100" viewBox="0 0 87 100" fill="none" xmlns="http://www.w3.org/2000/svg">
<path d="M86.6143 24.2133V41.4492C83.6029 41.155 79.69 40.4707 75.3615 38.8846C69.7096 36.8124 65.5026 33.9792 62.7469 31.7856V66.6219L62.6766 66.5132C62.7214 67.2039 62.7469 67.9074 62.7469 68.6173C62.7469 85.9171 48.6746 100 31.3735 100C14.0724 100 0 85.9171 0 68.6173C0 51.3175 14.0724 37.2282 31.3735 37.2282C33.0678 37.2282 34.7301 37.3625 36.3541 37.6247V54.6112C34.7941 54.0548 33.1189 53.7541 31.3735 53.7541C23.1833 53.7541 16.5147 60.4183 16.5147 68.6173C16.5147 76.8164 23.1833 83.4805 31.3735 83.4805C39.5637 83.4805 46.2322 76.81 46.2322 68.6173C46.2322 68.3103 46.2258 68.0033 46.2067 67.6963V0H63.4247C63.4886 1.45817 63.5462 2.92913 63.6101 4.3873C63.7252 7.25888 64.7481 10.0153 66.532 12.2729C68.6227 14.9271 71.7108 18.0097 76.0457 20.472C80.1056 22.768 83.9162 23.7593 86.6143 24.2261V24.2133Z" fill="#B4C1C7"/>
</svg>
