<svg width="132" height="95" viewBox="0 0 132 95" fill="none" xmlns="http://www.w3.org/2000/svg">
<path d="M71.8478 95C27.2707 95 1.62326 60.1604 0.000264847 2.05174C-0.0309688 0.933479 0.870874 0 1.98958 0H20.5778C21.6691 0 22.558 0.89282 22.5892 1.98366C23.719 41.4455 38.1314 59.6889 50.6269 64.9202C51.8545 65.4341 53.132 64.4784 53.132 63.1476V2C53.132 0.895431 54.0274 0 55.132 0H72.4045C73.5091 0 74.4045 0.895431 74.4045 2V35.299C74.4045 36.5013 75.4606 37.4373 76.6257 37.1404C88.6022 34.0885 100.668 18.6783 105.34 1.5187C105.582 0.629954 106.381 0 107.302 0H124.677C125.902 0 126.841 1.09257 126.614 2.29647C122.83 22.4532 110.617 37.7466 100.753 45.4147C99.5635 46.3398 99.6522 48.2316 100.925 49.0395C111.1 55.5008 125.098 69.3477 131.331 92.5449C131.666 93.7926 130.713 95 129.421 95H110.056C109.158 95 108.373 94.3998 108.112 93.5407C103.071 76.9888 91.6539 64.1428 76.6239 61.3817C75.4487 61.1658 74.4045 62.0988 74.4045 63.2937V93C74.4045 94.1046 73.5091 95 72.4045 95H71.8478Z" fill="#B4C1C7"/>
</svg>
