<svg width="127" height="88" viewBox="0 0 127 88" fill="none" xmlns="http://www.w3.org/2000/svg">
<path d="M125.097 23.5896C124.322 16.1071 122.655 7.83561 116.517 3.48874C111.763 0.117846 105.514 -0.00668845 99.681 0.00023331C87.3501 0.00715507 75.0122 0.0209411 62.6813 0.0278629C50.8209 0.0417064 38.9604 0.048662 27.1 0.0625055C22.1455 0.0694273 17.3293 -0.318242 12.7277 1.8275C8.77657 3.66869 5.68346 7.17117 3.82205 11.0681C1.24099 16.4879 0.701281 22.6275 0.389894 28.6217C-0.184443 39.5373 -0.122166 50.4806 0.562887 61.3893C1.06803 69.3493 2.34816 78.1469 8.49979 83.2206C13.9525 87.7128 21.6472 87.9342 28.7192 87.9412C51.1668 87.9619 73.6213 87.9827 96.0758 87.9966C98.9545 88.0035 101.958 87.9481 104.892 87.6297C110.663 87.0068 116.164 85.3525 119.873 81.0748C123.616 76.7626 124.578 70.7613 125.146 65.0786C126.53 51.2904 126.516 37.3708 125.097 23.5896ZM49.6999 63.3274V24.6693L83.1637 43.9949L49.6999 63.3274Z" fill="#B4C1C7"/>
</svg>
